<?xml version="1.0" encoding="UTF-8"?>
<svg width="78px" height="12px" viewBox="0 0 78 12" version="1.1" xmlns="http://www.w3.org/2000/svg" xmlns:xlink="http://www.w3.org/1999/xlink">
    <g id="Page-1" stroke="none" stroke-width="1" fill="none" fill-rule="evenodd">
        <g id="Artboard-3" transform="translate(-259.000000, -294.000000)" fill="#FF1F02">
            <path d="M259.209,296.464 L260.716,294.946 L264.599,294.946 L266.095,296.453 L266.095,298.356 L263.312,298.356 L263.312,297.619 L261.948,297.619 L261.948,298.598 L264.577,298.598 L266.095,300.138 L266.095,303.548 L264.599,305.055 L260.705,305.055 L259.209,303.548 L259.209,301.524 L261.97,301.524 L261.97,302.426 L263.345,302.426 L263.345,301.26 L260.705,301.26 L259.209,299.742 L259.209,296.464 Z M269.252,305.055 L266.623,305.055 L266.623,294.946 L269.582,294.946 L271.21,298.675 L271.21,294.946 L273.916,294.946 L273.916,305.055 L270.814,305.055 L269.252,301.249 L269.252,305.055 Z M280.362,305.055 L274.51,305.055 L274.51,294.946 L280.362,294.946 L280.362,297.553 L277.271,297.553 L277.271,298.631 L280.362,298.631 L280.362,301.227 L277.26,301.227 L277.26,302.514 L280.362,302.514 L280.362,305.055 Z M286.676,294.946 C286.712667,294.946 286.851999,295.466661 287.094,296.508 L287.809,299.698 L288.546,303.152 L288.931,305 L288.931,305.055 L286.28,305.055 L285.851,303.559 L284.377,303.559 L284.08,304.472 C283.962666,304.824002 283.867334,305.018333 283.794,305.055 L281.242,305.055 L281.242,305 L281.572,303.449 L282.298,300.127 L282.991,296.948 C283.049667,296.683999 283.123,296.288003 283.211,295.76 C283.277,295.378665 283.328333,295.107334 283.365,294.946 L286.676,294.946 Z M285.07,299.896 L284.883,300.919 L285.279,300.919 L285.07,299.896 Z M292.209,305.055 L289.47,305.055 L289.47,294.946 L292.22,294.946 L292.22,297.366 L293.397,294.946 L296.686,294.946 L294.134,299.687 L297.115,305.055 L293.87,305.055 L292.209,302.063 L292.209,305.055 Z M303.33,305.055 L297.478,305.055 L297.478,294.946 L303.33,294.946 L303.33,297.553 L300.239,297.553 L300.239,298.631 L303.33,298.631 L303.33,301.227 L300.228,301.227 L300.228,302.514 L303.33,302.514 L303.33,305.055 Z M307.004,305.055 L304.21,305.055 L304.21,294.946 L309.611,294.946 L311.173,296.475 L311.173,299.72 L310.502,300.38 L311.14,300.996 L311.14,305.055 L308.28,305.055 L308.28,301.788 L307.004,301.788 L307.004,305.055 Z M306.894,297.652 L306.894,299.401 L308.39,299.401 L308.39,297.652 L306.894,297.652 Z M314.165,302.481 L315.65,302.481 L315.65,301.095 L318.246,301.095 L318.246,303.68 L316.882,305.055 L312.867,305.055 L311.503,303.68 L311.503,296.343 L312.922,294.946 L316.871,294.946 L318.246,296.321 L318.246,298.972 L315.65,298.972 L315.65,297.509 L314.165,297.509 L314.165,302.481 Z M318.719,305.055 L318.719,294.946 L321.612,294.946 L321.612,305.055 L318.719,305.055 Z M321.931,297.531 L321.931,294.946 L328.454,294.946 L328.454,297.531 L326.551,297.531 L326.551,305.055 L323.867,305.055 L323.867,297.531 L321.931,297.531 Z M334.152,300.666 L334.152,305.055 L331.292,305.055 L331.292,300.688 L328.982,294.946 L331.985,294.946 L332.931,297.102 L333.811,294.946 L337.078,294.946 L334.152,300.666 Z" id="SNEAKERCITY"></path>
        </g>
    </g>
</svg>